<svg width="1523" height="259" viewBox="0 0 1523 259" fill="none" xmlns="http://www.w3.org/2000/svg">
<path d="M667.501 106.492C678.685 106.045 686.291 102.913 688.528 92.1757C689.87 85.9123 685.844 81.8858 678.685 81.4384C678.685 81.4384 658.106 80.5436 633.947 79.2015C633.947 79.2015 638.868 52.8056 641.105 42.0683C642.447 36.6997 639.315 31.331 632.604 29.9889C625.894 28.1993 610.682 28.1993 605.761 28.6467C601.287 29.0941 597.261 31.7784 596.366 36.2523C594.129 47.437 591.445 60.8586 588.313 77.8593C579.365 77.8593 570.865 77.4119 565.049 77.8593C559.68 77.8593 556.996 80.991 555.654 85.4649C554.312 89.9388 553.417 96.6496 553.417 103.36C552.97 108.729 558.786 110.966 564.602 110.519C564.602 110.519 571.76 110.071 582.944 109.624C580.707 119.466 576.681 145.415 575.339 161.521C565.496 195.075 544.469 220.128 526.574 220.128C515.389 220.128 509.126 213.418 509.126 193.733C509.126 166.442 515.389 131.993 524.784 97.097C537.758 65.7798 545.364 31.331 545.364 15.6725C545.364 9.85644 543.574 3.14563 536.416 1.80347C523.889 -0.880858 511.362 -0.43347 502.862 2.25085C495.257 4.48779 493.914 12.5408 493.02 17.0146C488.546 37.5944 481.388 73.8328 476.466 105.597C465.282 119.019 452.307 128.414 438.438 131.098C437.096 106.492 428.148 89.9388 414.279 80.5436C410.253 77.8593 405.779 75.6224 400.858 74.2802C394.147 72.0433 386.541 71.1485 378.041 71.1485C318.986 71.1485 280.958 123.94 280.958 182.995C280.958 230.866 307.354 250.998 345.382 250.998C390.568 250.998 423.675 219.234 436.201 160.626C448.728 157.942 459.913 151.678 469.755 143.178C469.755 143.178 462.597 179.416 462.597 200.891C462.597 233.103 476.466 250.998 509.126 250.998C535.969 250.998 559.233 232.208 573.997 208.944C578.023 238.919 593.682 250.998 619.183 250.998C642.447 250.998 665.264 236.234 680.922 209.391C684.054 204.023 686.291 199.549 684.501 196.864C680.028 191.496 671.08 188.811 668.843 193.285C658.553 212.523 646.921 220.128 634.841 220.128C624.999 220.128 617.393 214.312 617.393 197.312C617.393 173.153 631.262 107.387 631.262 107.387C641.552 107.387 654.974 106.939 667.501 106.492ZM393.7 153.02C387.436 192.39 369.988 225.05 351.198 225.05C337.776 225.05 328.381 213.418 328.381 190.154C328.381 145.415 344.487 97.5443 372.672 97.5443C375.804 97.5443 378.936 97.9917 381.173 98.8865C381.62 98.8865 381.62 99.3339 382.068 99.3339C379.831 105.597 379.383 111.861 378.936 118.572C378.936 128.861 380.725 142.283 393.7 153.02C393.7 152.573 393.7 152.573 393.7 153.02Z" fill="white"/>
<path d="M582.498 110.068C582.498 109.621 582.498 109.621 582.498 110.068C580.708 110.068 580.261 110.068 582.498 110.068Z" fill="white"/>
<path d="M258.589 0.462891C250.536 0.462891 243.826 0.910278 240.247 1.35767C233.536 2.25244 230.851 8.51586 231.746 15.2267C238.904 108.731 218.325 216.998 195.06 216.998C177.612 216.998 172.691 166.444 172.691 121.257C172.691 94.4142 174.033 68.9131 174.928 46.0964C175.375 37.596 172.244 36.2539 165.98 35.3591C156.585 34.0169 150.322 34.4643 140.927 36.2539C133.768 37.596 131.979 43.4121 124.821 60.8602C88.1348 148.101 52.7912 217.893 52.7912 217.893C43.3961 147.653 55.4756 79.6504 65.7655 29.9904C67.1076 23.2796 63.9759 19.2532 58.1599 19.2532C47.4226 19.2532 31.3167 19.7005 24.1585 24.6218C17.4477 29.0957 14.7633 34.0169 12.9738 43.8595C1.78909 100.678 -5.81649 172.26 5.81558 227.288C8.4999 239.368 11.1842 242.052 16.1055 245.184C21.0267 248.315 42.9487 251 51.0017 251C60.3968 251 69.3446 248.315 76.5028 235.789C91.7139 209.393 104.241 182.997 127.505 132.442C129.742 198.208 139.137 250.105 185.665 250.105C246.51 250.552 285.88 97.0985 285.88 23.2796C285.88 3.5946 276.485 0.462891 258.589 0.462891Z" fill="white"/>
<path d="M785.979 217.333V51.4735C785.979 30.1737 796.454 19 815.309 19H835.212C852.671 19 859.655 23.8885 864.893 38.2047L897.366 125.15L929.839 38.2047C935.775 22.4918 943.108 19 957.774 19H978.375C997.929 19 1008.75 30.1737 1008.75 51.4735V217.333C1008.75 237.585 1001.77 248.409 982.565 248.409H973.137C954.631 248.409 946.949 237.585 946.949 217.333V183.812L948.346 109.088L924.253 185.208C921.11 194.287 920.412 202.318 897.017 202.318C873.622 202.318 873.971 194.287 870.479 185.208L846.386 111.532L847.783 183.113V217.333C847.783 237.585 840.799 248.409 821.595 248.409H811.818C793.66 248.409 785.979 237.585 785.979 217.333Z" fill="white"/>
<path d="M1474.4 251.203C1438.09 251.203 1417.83 231.998 1417.83 193.589V122.706H1413.64C1398.28 122.706 1390.25 114.674 1390.25 100.707V95.8189C1390.25 82.201 1397.58 73.4716 1413.64 73.4716H1417.83V56.7111C1417.83 36.1097 1427.96 25.9835 1446.12 25.9835H1451.7C1469.51 25.9835 1480.34 33.6654 1480.34 56.7111V73.4716H1498.84C1514.21 73.4716 1521.89 80.8043 1521.89 94.7714V99.6599C1521.89 115.024 1513.51 122.706 1498.14 122.706H1479.29V182.066C1479.29 194.985 1483.83 199.874 1492.21 199.874C1499.89 199.874 1505.48 196.033 1509.67 190.446C1512.46 190.446 1522.94 198.826 1522.94 214.888C1522.94 224.316 1519.79 231.998 1513.16 238.283C1505.13 246.314 1491.86 251.203 1474.4 251.203Z" fill="white"/>
<path d="M1214.54 169.473C1209.73 114.513 1240.91 74.2801 1291.35 69.8674C1341.79 65.4546 1376.74 96.3961 1381.25 147.878L1381.55 151.356C1382.09 161.474 1379.16 168.04 1368.72 168.953L1271.67 177.443L1273.26 183.613C1278.87 199.597 1292.41 206.124 1309.1 204.663C1326.5 203.141 1337.65 194.454 1342.82 181.384C1345.22 180.823 1374.91 179.627 1377.07 204.325C1378.05 215.456 1372.7 226.439 1361.51 234.779C1350.67 243.088 1333.64 248.783 1310.69 250.792C1256.77 255.509 1219.44 225.476 1214.54 169.473ZM1322.59 142.494C1320.1 122.032 1311.1 111.253 1294.4 112.714C1278.4 114.113 1269.47 128.214 1269.72 147.12L1322.59 142.494Z" fill="white"/>
<path d="M1032.11 169.473C1027.3 114.513 1058.48 74.2801 1108.92 69.8674C1159.36 65.4546 1194.31 96.3961 1198.82 147.878L1199.12 151.356C1199.65 161.474 1196.72 168.04 1186.29 168.953L1089.24 177.443L1090.83 183.613C1096.43 199.597 1109.97 206.124 1126.67 204.663C1144.06 203.141 1155.22 194.454 1160.39 181.384C1162.79 180.823 1192.48 179.627 1194.64 204.325C1195.61 215.456 1190.27 226.439 1179.08 234.779C1168.24 243.088 1151.21 248.783 1128.25 250.792C1074.34 255.509 1037.01 225.476 1032.11 169.473ZM1140.16 142.494C1137.67 122.032 1128.66 111.253 1111.97 112.714C1095.97 114.113 1087.03 128.214 1087.29 147.12L1140.16 142.494Z" fill="white"/>
</svg>
